<?xml version="1.0" encoding="UTF-8"?>
<svg xmlns="http://www.w3.org/2000/svg" xmlns:xlink="http://www.w3.org/1999/xlink" width="2172pt" height="724pt" viewBox="0 0 2172 724" version="1.2">
<g id="surface1">
<path style=" stroke:none;fill-rule:nonzero;fill:rgb(4.313725%,23.137255%,21.960784%);fill-opacity:1;" d="M 830.832031 223.882812 L 830.832031 187.144531 L 833.429688 189.152344 L 822.386719 189.152344 L 822.386719 180.765625 L 840.460938 180.765625 L 840.460938 223.882812 Z M 830.832031 223.882812 "/>
<path style=" stroke:none;fill-rule:nonzero;fill:rgb(4.313725%,23.137255%,21.960784%);fill-opacity:1;" d="M 885.878906 203.328125 L 885.878906 196.769531 L 884.464844 196.769531 L 884.464844 190.039062 C 884.464844 189.210938 884.304688 188.589844 883.988281 188.175781 C 883.675781 187.761719 883.0625 187.554688 882.160156 187.554688 C 881.726562 187.554688 881.007812 187.566406 880.003906 187.585938 C 879 187.605469 877.886719 187.636719 876.664062 187.675781 C 875.445312 187.714844 874.324219 187.773438 873.300781 187.851562 L 873.300781 180.820312 C 874.007812 180.746094 874.855469 180.683594 875.839844 180.644531 C 876.824219 180.605469 877.816406 180.566406 878.820312 180.527344 C 879.824219 180.488281 880.703125 180.46875 881.449219 180.46875 C 883.8125 180.46875 885.820312 180.832031 887.476562 181.558594 C 889.128906 182.289062 890.398438 183.351562 891.285156 184.75 C 892.167969 186.148438 892.613281 187.871094 892.613281 189.917969 L 892.613281 203.328125 Z M 878.96875 203.917969 C 876.644531 203.917969 874.726562 203.277344 873.210938 201.996094 C 871.695312 200.71875 870.9375 198.976562 870.9375 196.769531 C 870.9375 195 871.410156 193.601562 872.355469 192.578125 C 873.300781 191.554688 874.589844 190.796875 876.222656 190.304688 C 877.855469 189.808594 879.695312 189.5625 881.746094 189.5625 L 885.464844 189.5625 L 885.464844 193.875 L 881.804688 193.875 C 881.015625 193.875 880.40625 194.082031 879.972656 194.496094 C 879.539062 194.910156 879.324219 195.453125 879.324219 196.121094 C 879.324219 196.75 879.53125 197.261719 879.945312 197.65625 C 880.359375 198.050781 880.976562 198.246094 881.804688 198.246094 C 882.355469 198.246094 882.816406 198.148438 883.191406 197.953125 C 883.566406 197.753906 883.859375 197.421875 884.078125 196.945312 C 884.292969 196.472656 884.421875 195.847656 884.464844 195.054688 L 886.410156 196.828125 C 886.175781 199.074219 885.457031 200.816406 884.253906 202.054688 C 883.054688 203.296875 881.292969 203.917969 878.96875 203.917969 "/>
<path style=" stroke:none;fill-rule:nonzero;fill:rgb(4.313725%,23.137255%,21.960784%);fill-opacity:1;" d="M 968.035156 215.847656 L 986.878906 215.847656 L 986.878906 223.882812 L 968.035156 223.882812 Z M 968.035156 197.949219 L 985.519531 197.949219 L 985.519531 205.984375 L 968.035156 205.984375 Z M 968.035156 180.765625 L 986.464844 180.765625 L 986.464844 188.796875 L 968.035156 188.796875 Z M 959.769531 180.765625 L 969.21875 180.765625 L 969.21875 223.882812 L 959.769531 223.882812 Z M 959.769531 180.765625 "/>
<path style=" stroke:none;fill-rule:nonzero;fill:rgb(4.313725%,23.137255%,21.960784%);fill-opacity:1;" d="M 1026.980469 224.117188 L 1026.980469 215.082031 L 1035.015625 215.082031 C 1037.023438 215.082031 1038.832031 214.773438 1040.449219 214.164062 C 1042.0625 213.554688 1043.441406 212.6875 1044.582031 211.566406 C 1045.722656 210.441406 1046.589844 209.085938 1047.179688 207.488281 C 1047.773438 205.894531 1048.066406 204.132812 1048.066406 202.203125 C 1048.066406 200.195312 1047.773438 198.402344 1047.179688 196.828125 C 1046.589844 195.253906 1045.722656 193.917969 1044.582031 192.8125 C 1043.441406 191.710938 1042.0625 190.875 1040.449219 190.304688 C 1038.832031 189.730469 1037.023438 189.445312 1035.015625 189.445312 L 1026.980469 189.445312 L 1026.980469 180.410156 L 1034.484375 180.410156 C 1038.382812 180.410156 1041.785156 180.980469 1044.699219 182.121094 C 1047.613281 183.265625 1050.054688 184.820312 1052.023438 186.789062 C 1053.992188 188.757812 1055.460938 191.011719 1056.425781 193.550781 C 1057.390625 196.089844 1057.871094 198.757812 1057.871094 201.554688 L 1057.871094 202.851562 C 1057.871094 205.453125 1057.390625 208.019531 1056.425781 210.5625 C 1055.460938 213.101562 1053.992188 215.386719 1052.023438 217.414062 C 1050.054688 219.441406 1047.613281 221.066406 1044.699219 222.285156 C 1041.785156 223.507812 1038.382812 224.117188 1034.484375 224.117188 Z M 1018.476562 180.410156 L 1028.164062 180.410156 L 1028.164062 224.117188 L 1018.476562 224.117188 Z M 1018.476562 180.410156 "/>
<path style=" stroke:none;fill-rule:nonzero;fill:rgb(4.313725%,23.137255%,21.960784%);fill-opacity:1;" d="M 1088.347656 180.765625 L 1098.035156 180.765625 L 1098.035156 223.882812 L 1088.347656 223.882812 Z M 1088.347656 180.765625 "/>
<path style=" stroke:none;fill-rule:nonzero;fill:rgb(4.313725%,23.137255%,21.960784%);fill-opacity:1;" d="M 1150.957031 240.179688 C 1149.972656 240.179688 1149.015625 240.113281 1148.089844 239.972656 C 1147.164062 239.835938 1146.425781 239.667969 1145.875 239.472656 L 1145.875 233.449219 C 1146.46875 233.605469 1147.164062 233.761719 1147.972656 233.921875 C 1148.777344 234.078125 1149.636719 234.160156 1150.542969 234.160156 C 1151.722656 234.160156 1152.609375 234.019531 1153.199219 233.746094 C 1153.789062 233.46875 1154.085938 233.054688 1154.085938 232.503906 C 1154.085938 232.070312 1153.867188 231.738281 1153.4375 231.5 C 1153.003906 231.261719 1152.3125 231.144531 1151.367188 231.144531 L 1148.238281 231.144531 L 1148.238281 223.113281 L 1154.320312 223.113281 L 1154.320312 228.960938 L 1150.660156 226.417969 L 1151.488281 226.417969 C 1154.242188 226.417969 1156.417969 226.941406 1158.015625 227.984375 C 1159.609375 229.027344 1160.40625 230.59375 1160.40625 232.679688 C 1160.40625 234.769531 1159.589844 236.539062 1157.953125 237.996094 C 1156.320312 239.453125 1153.988281 240.179688 1150.957031 240.179688 M 1151.25 225 C 1147.351562 225 1144.003906 224.324219 1141.210938 222.964844 C 1138.414062 221.605469 1136.132812 219.816406 1134.359375 217.589844 C 1132.585938 215.367188 1131.277344 212.964844 1130.429688 210.382812 C 1129.585938 207.804688 1129.160156 205.292969 1129.160156 202.855469 L 1129.160156 201.554688 C 1129.160156 198.875 1129.59375 196.230469 1130.460938 193.609375 C 1131.324219 190.992188 1132.65625 188.617188 1134.445312 186.492188 C 1136.238281 184.367188 1138.503906 182.664062 1141.238281 181.382812 C 1143.976562 180.105469 1147.214844 179.464844 1150.957031 179.464844 C 1154.851562 179.464844 1158.300781 180.195312 1161.292969 181.648438 C 1164.28125 183.109375 1166.675781 185.125 1168.46875 187.703125 C 1170.257812 190.285156 1171.3125 193.304688 1171.628906 196.769531 L 1161.882812 196.769531 C 1161.605469 195.035156 1160.976562 193.5625 1159.992188 192.339844 C 1159.007812 191.121094 1157.738281 190.175781 1156.183594 189.503906 C 1154.628906 188.835938 1152.882812 188.5 1150.957031 188.5 C 1149.023438 188.5 1147.3125 188.835938 1145.816406 189.503906 C 1144.320312 190.175781 1143.070312 191.121094 1142.066406 192.339844 C 1141.0625 193.5625 1140.292969 195.007812 1139.761719 196.679688 C 1139.230469 198.355469 1138.964844 200.214844 1138.964844 202.261719 C 1138.964844 204.273438 1139.230469 206.113281 1139.761719 207.785156 C 1140.292969 209.457031 1141.082031 210.914062 1142.125 212.15625 C 1143.167969 213.398438 1144.457031 214.339844 1145.992188 214.992188 C 1147.527344 215.640625 1149.28125 215.964844 1151.25 215.964844 C 1154.242188 215.964844 1156.773438 215.238281 1158.839844 213.78125 C 1160.90625 212.324219 1162.15625 210.316406 1162.589844 207.753906 L 1172.277344 207.753906 C 1171.921875 210.90625 1170.867188 213.789062 1169.117188 216.410156 C 1167.363281 219.027344 1164.984375 221.117188 1161.972656 222.667969 C 1158.960938 224.222656 1155.386719 225 1151.25 225 "/>
<path style=" stroke:none;fill-rule:nonzero;fill:rgb(4.313725%,23.137255%,21.960784%);fill-opacity:1;" d="M 1208.660156 213.191406 L 1211.613281 205.15625 L 1228.507812 205.15625 L 1231.519531 213.191406 Z M 1225.199219 177.457031 C 1223.976562 177.457031 1222.925781 177.296875 1222.039062 176.984375 C 1221.152344 176.667969 1220.363281 176.304688 1219.675781 175.890625 C 1218.984375 175.476562 1218.265625 175.113281 1217.519531 174.796875 C 1216.769531 174.484375 1215.90625 174.328125 1214.921875 174.328125 C 1213.660156 174.328125 1212.566406 174.550781 1211.644531 175.003906 C 1210.71875 175.457031 1209.980469 176.019531 1209.429688 176.6875 L 1208.011719 170.308594 C 1208.679688 169.484375 1209.585938 168.785156 1210.726562 168.210938 C 1211.871094 167.640625 1213.265625 167.355469 1214.921875 167.355469 C 1216.179688 167.355469 1217.246094 167.511719 1218.109375 167.828125 C 1218.976562 168.144531 1219.765625 168.507812 1220.472656 168.921875 C 1221.179688 169.335938 1221.910156 169.699219 1222.65625 170.011719 C 1223.40625 170.332031 1224.273438 170.488281 1225.257812 170.488281 C 1226.515625 170.488281 1227.609375 170.25 1228.535156 169.777344 C 1229.460938 169.304688 1230.199219 168.734375 1230.75 168.066406 L 1232.167969 174.503906 C 1231.5 175.332031 1230.59375 176.03125 1229.453125 176.597656 C 1228.308594 177.171875 1226.890625 177.457031 1225.199219 177.457031 M 1197.851562 223.878906 L 1212.085938 180.761719 L 1227.738281 180.761719 L 1242.503906 223.878906 L 1232.464844 223.878906 L 1220.53125 187.4375 L 1223.601562 188.675781 L 1215.984375 188.675781 L 1219.175781 187.4375 L 1207.539062 223.878906 Z M 1197.851562 223.878906 "/>
<path style=" stroke:none;fill-rule:nonzero;fill:rgb(4.313725%,23.137255%,21.960784%);fill-opacity:1;" d="M 1290.640625 215.964844 C 1292.6875 215.964844 1294.53125 215.613281 1296.164062 214.902344 C 1297.796875 214.195312 1299.195312 213.210938 1300.359375 211.949219 C 1301.519531 210.691406 1302.394531 209.234375 1302.988281 207.578125 C 1303.578125 205.925781 1303.871094 204.152344 1303.871094 202.265625 C 1303.871094 200.253906 1303.566406 198.414062 1302.957031 196.738281 C 1302.34375 195.066406 1301.460938 193.609375 1300.296875 192.367188 C 1299.136719 191.128906 1297.75 190.175781 1296.132812 189.503906 C 1294.519531 188.835938 1292.6875 188.5 1290.640625 188.5 C 1288.59375 188.5 1286.761719 188.835938 1285.148438 189.503906 C 1283.535156 190.175781 1282.144531 191.128906 1280.984375 192.367188 C 1279.824219 193.609375 1278.949219 195.066406 1278.355469 196.738281 C 1277.765625 198.414062 1277.46875 200.253906 1277.46875 202.265625 C 1277.46875 204.152344 1277.765625 205.925781 1278.355469 207.578125 C 1278.949219 209.234375 1279.824219 210.691406 1280.984375 211.949219 C 1282.144531 213.210938 1283.535156 214.195312 1285.148438 214.902344 C 1286.761719 215.613281 1288.59375 215.964844 1290.640625 215.964844 M 1290.640625 225 C 1286.742188 225 1283.347656 224.324219 1280.453125 222.964844 C 1277.558594 221.605469 1275.167969 219.816406 1273.277344 217.589844 C 1271.386719 215.363281 1269.980469 212.953125 1269.054688 210.355469 C 1268.128906 207.753906 1267.664062 205.253906 1267.664062 202.855469 L 1267.664062 201.554688 C 1267.664062 198.875 1268.148438 196.230469 1269.113281 193.609375 C 1270.078125 190.992188 1271.523438 188.617188 1273.453125 186.492188 C 1275.382812 184.367188 1277.785156 182.664062 1280.660156 181.382812 C 1283.535156 180.105469 1286.863281 179.464844 1290.640625 179.464844 C 1294.421875 179.464844 1297.75 180.105469 1300.621094 181.382812 C 1303.496094 182.664062 1305.898438 184.367188 1307.828125 186.492188 C 1309.757812 188.617188 1311.214844 190.992188 1312.199219 193.609375 C 1313.183594 196.230469 1313.675781 198.875 1313.675781 201.554688 L 1313.675781 202.855469 C 1313.675781 205.253906 1313.203125 207.753906 1312.257812 210.355469 C 1311.316406 212.953125 1309.898438 215.363281 1308.007812 217.589844 C 1306.117188 219.816406 1303.722656 221.605469 1300.828125 222.964844 C 1297.9375 224.324219 1294.539062 225 1290.640625 225 "/>
<path style=" stroke:none;fill-rule:nonzero;fill:rgb(4.313725%,23.137255%,21.960784%);fill-opacity:1;" d="M 873.230469 350.292969 C 864.917969 350.292969 857.777344 348.820312 851.8125 345.882812 C 845.847656 342.941406 840.996094 339.121094 837.257812 334.414062 C 833.519531 329.714844 830.769531 324.589844 829.003906 319.046875 C 827.242188 313.5 826.359375 308.164062 826.359375 303.042969 L 826.359375 300.269531 C 826.359375 294.558594 827.261719 288.929688 829.070312 283.386719 C 830.875 277.84375 833.667969 272.800781 837.449219 268.265625 C 841.226562 263.730469 846.035156 260.097656 851.875 257.363281 C 857.710938 254.636719 864.621094 253.269531 872.601562 253.269531 C 880.917969 253.269531 888.164062 254.765625 894.335938 257.742188 C 900.511719 260.726562 905.445312 264.925781 909.144531 270.34375 C 912.839844 275.761719 915.066406 282.085938 915.820312 289.308594 L 897.800781 289.308594 C 897.128906 285.105469 895.640625 281.558594 893.328125 278.660156 C 891.019531 275.761719 888.101562 273.578125 884.574219 272.105469 C 881.042969 270.640625 877.054688 269.902344 872.601562 269.902344 C 868.066406 269.902344 864.035156 270.679688 860.503906 272.234375 C 856.976562 273.789062 854.035156 275.992188 851.683594 278.851562 C 849.332031 281.707031 847.546875 285.066406 846.332031 288.929688 C 845.113281 292.796875 844.503906 297.078125 844.503906 301.78125 C 844.503906 306.316406 845.113281 310.519531 846.332031 314.382812 C 847.546875 318.246094 849.375 321.628906 851.8125 324.523438 C 854.246094 327.425781 857.25 329.671875 860.820312 331.265625 C 864.390625 332.863281 868.527344 333.660156 873.230469 333.660156 C 880.121094 333.660156 885.9375 331.960938 890.683594 328.558594 C 895.429688 325.15625 898.308594 320.390625 899.316406 314.257812 L 917.332031 314.257812 C 916.492188 320.808594 914.265625 326.8125 910.65625 332.273438 C 907.042969 337.734375 902.085938 342.105469 895.785156 345.378906 C 889.488281 348.652344 881.96875 350.292969 873.230469 350.292969 "/>
<path style=" stroke:none;fill-rule:nonzero;fill:rgb(4.313725%,23.137255%,21.960784%);fill-opacity:1;" d="M 977.5625 333.660156 C 982.265625 333.660156 986.488281 332.820312 990.226562 331.140625 C 993.960938 329.460938 997.15625 327.128906 999.800781 324.148438 C 1002.449219 321.167969 1004.464844 317.765625 1005.847656 313.941406 C 1007.234375 310.121094 1007.929688 306.066406 1007.929688 301.78125 C 1007.929688 297.164062 1007.234375 292.921875 1005.847656 289.054688 C 1004.464844 285.191406 1002.449219 281.832031 999.800781 278.972656 C 997.15625 276.121094 993.941406 273.894531 990.164062 272.296875 C 986.382812 270.703125 982.179688 269.902344 977.5625 269.902344 C 972.855469 269.902344 968.617188 270.703125 964.835938 272.296875 C 961.054688 273.894531 957.84375 276.121094 955.195312 278.972656 C 952.550781 281.832031 950.535156 285.191406 949.148438 289.054688 C 947.761719 292.921875 947.070312 297.164062 947.070312 301.78125 C 947.070312 306.066406 947.761719 310.121094 949.148438 313.941406 C 950.535156 317.765625 952.550781 321.167969 955.195312 324.148438 C 957.84375 327.128906 961.054688 329.460938 964.835938 331.140625 C 968.617188 332.820312 972.855469 333.660156 977.5625 333.660156 M 977.5625 350.292969 C 969.246094 350.292969 962.042969 348.820312 955.953125 345.882812 C 949.863281 342.941406 944.820312 339.101562 940.832031 334.351562 C 936.839844 329.609375 933.859375 324.484375 931.886719 318.980469 C 929.910156 313.480469 928.925781 308.167969 928.925781 303.042969 L 928.925781 300.269531 C 928.925781 294.640625 929.933594 289.035156 931.949219 283.449219 C 933.964844 277.863281 937.007812 272.800781 941.085938 268.265625 C 945.15625 263.726562 950.21875 260.097656 956.265625 257.363281 C 962.316406 254.636719 969.414062 253.269531 977.5625 253.269531 C 985.625 253.269531 992.683594 254.636719 998.730469 257.363281 C 1004.777344 260.097656 1009.839844 263.726562 1013.914062 268.265625 C 1017.988281 272.800781 1021.03125 277.863281 1023.050781 283.449219 C 1025.066406 289.035156 1026.074219 294.640625 1026.074219 300.269531 L 1026.074219 303.042969 C 1026.074219 308.167969 1025.085938 313.480469 1023.113281 318.980469 C 1021.136719 324.484375 1018.15625 329.609375 1014.164062 334.351562 C 1010.175781 339.101562 1005.136719 342.941406 999.046875 345.882812 C 992.953125 348.820312 985.792969 350.292969 977.5625 350.292969 "/>
<path style=" stroke:none;fill-rule:nonzero;fill:rgb(4.313725%,23.137255%,21.960784%);fill-opacity:1;" d="M 1101.421875 347.898438 L 1073.195312 307.832031 L 1093.230469 307.832031 L 1122.339844 347.898438 Z M 1057.824219 317.15625 L 1057.824219 302.664062 L 1081.261719 302.664062 C 1084.539062 302.664062 1087.371094 301.992188 1089.765625 300.648438 C 1092.160156 299.304688 1094.027344 297.414062 1095.371094 294.976562 C 1096.714844 292.542969 1097.390625 289.769531 1097.390625 286.664062 C 1097.390625 283.46875 1096.714844 280.65625 1095.371094 278.21875 C 1094.027344 275.785156 1092.160156 273.894531 1089.765625 272.546875 C 1087.371094 271.207031 1084.539062 270.535156 1081.261719 270.535156 L 1057.824219 270.535156 L 1057.824219 255.289062 L 1079.371094 255.289062 C 1086.761719 255.289062 1093.167969 256.378906 1098.585938 258.5625 C 1104.003906 260.75 1108.183594 264.066406 1111.125 268.515625 C 1114.0625 272.96875 1115.535156 278.554688 1115.535156 285.277344 L 1115.535156 287.292969 C 1115.535156 294.09375 1114.039062 299.683594 1111.0625 304.050781 C 1108.078125 308.417969 1103.898438 311.695312 1098.523438 313.878906 C 1093.148438 316.0625 1086.761719 317.15625 1079.371094 317.15625 Z M 1045.222656 255.289062 L 1063.117188 255.289062 L 1063.117188 347.898438 L 1045.222656 347.898438 Z M 1045.222656 255.289062 "/>
<path style=" stroke:none;fill-rule:nonzero;fill:rgb(4.313725%,23.137255%,21.960784%);fill-opacity:1;" d="M 1194.03125 347.898438 L 1165.804688 307.832031 L 1185.84375 307.832031 L 1214.949219 347.898438 Z M 1150.433594 317.15625 L 1150.433594 302.664062 L 1173.871094 302.664062 C 1177.148438 302.664062 1179.980469 301.992188 1182.378906 300.648438 C 1184.769531 299.304688 1186.636719 297.414062 1187.984375 294.976562 C 1189.328125 292.542969 1190 289.769531 1190 286.664062 C 1190 283.46875 1189.328125 280.65625 1187.984375 278.21875 C 1186.636719 275.785156 1184.769531 273.894531 1182.378906 272.546875 C 1179.980469 271.207031 1177.148438 270.535156 1173.871094 270.535156 L 1150.433594 270.535156 L 1150.433594 255.289062 L 1171.980469 255.289062 C 1179.371094 255.289062 1185.777344 256.378906 1191.195312 258.5625 C 1196.613281 260.75 1200.792969 264.066406 1203.734375 268.515625 C 1206.675781 272.96875 1208.144531 278.554688 1208.144531 285.277344 L 1208.144531 287.292969 C 1208.144531 294.09375 1206.652344 299.683594 1203.671875 304.050781 C 1200.6875 308.417969 1196.507812 311.695312 1191.132812 313.878906 C 1185.757812 316.0625 1179.371094 317.15625 1171.980469 317.15625 Z M 1137.835938 255.289062 L 1155.726562 255.289062 L 1155.726562 347.898438 L 1137.835938 347.898438 Z M 1137.835938 255.289062 "/>
<path style=" stroke:none;fill-rule:nonzero;fill:rgb(4.313725%,23.137255%,21.960784%);fill-opacity:1;" d="M 1230.695312 255.914062 L 1248.589844 255.914062 L 1248.589844 347.898438 L 1230.695312 347.898438 Z M 1230.695312 255.914062 "/>
<path style=" stroke:none;fill-rule:nonzero;fill:rgb(4.313725%,23.137255%,21.960784%);fill-opacity:1;" d="M 1288.78125 348.402344 L 1288.78125 331.769531 L 1307.808594 331.769531 C 1312.597656 331.769531 1316.859375 331.035156 1320.597656 329.566406 C 1324.335938 328.097656 1327.507812 326.015625 1330.113281 323.328125 C 1332.714844 320.640625 1334.710938 317.46875 1336.097656 313.8125 C 1337.484375 310.160156 1338.175781 306.109375 1338.175781 301.65625 C 1338.175781 297.039062 1337.484375 292.898438 1336.097656 289.246094 C 1334.710938 285.589844 1332.714844 282.460938 1330.113281 279.855469 C 1327.507812 277.253906 1324.335938 275.28125 1320.597656 273.933594 C 1316.859375 272.589844 1312.597656 271.917969 1307.808594 271.917969 L 1288.78125 271.917969 L 1288.78125 255.289062 L 1306.675781 255.289062 C 1314.992188 255.289062 1322.257812 256.507812 1328.472656 258.941406 C 1334.6875 261.378906 1339.855469 264.714844 1343.972656 268.957031 C 1348.085938 273.203125 1351.175781 278.03125 1353.234375 283.449219 C 1355.292969 288.867188 1356.320312 294.472656 1356.320312 300.269531 L 1356.320312 303.042969 C 1356.320312 308.585938 1355.292969 314.046875 1353.234375 319.421875 C 1351.175781 324.796875 1348.085938 329.671875 1343.972656 334.039062 C 1339.855469 338.40625 1334.6875 341.894531 1328.472656 344.496094 C 1322.257812 347.101562 1314.992188 348.402344 1306.675781 348.402344 Z M 1273.410156 255.289062 L 1291.304688 255.289062 L 1291.304688 348.402344 L 1273.410156 348.402344 Z M 1273.410156 255.289062 "/>
<path style=" stroke:none;fill-rule:nonzero;fill:rgb(4.313725%,23.137255%,21.960784%);fill-opacity:1;" d="M 1383.535156 323.453125 L 1389.207031 308.335938 L 1426.503906 308.335938 L 1432.046875 323.453125 Z M 1361.609375 347.898438 L 1392.984375 255.917969 L 1422.21875 255.917969 L 1454.476562 347.898438 L 1436.082031 347.898438 L 1408.738281 268.140625 L 1415.164062 270.910156 L 1399.414062 270.910156 L 1405.964844 268.140625 L 1379.503906 347.898438 Z M 1361.609375 347.898438 "/>
<path style=" stroke:none;fill-rule:nonzero;fill:rgb(4.313725%,23.137255%,21.960784%);fill-opacity:1;" d="M 1514.453125 348.402344 L 1514.453125 331.769531 L 1533.476562 331.769531 C 1538.265625 331.769531 1542.527344 331.035156 1546.265625 329.566406 C 1550.003906 328.097656 1553.175781 326.015625 1555.78125 323.328125 C 1558.382812 320.640625 1560.378906 317.46875 1561.765625 313.8125 C 1563.152344 310.160156 1563.84375 306.109375 1563.84375 301.65625 C 1563.84375 297.039062 1563.152344 292.898438 1561.765625 289.246094 C 1560.378906 285.589844 1558.382812 282.460938 1555.78125 279.855469 C 1553.175781 277.253906 1550.003906 275.28125 1546.265625 273.933594 C 1542.527344 272.589844 1538.265625 271.917969 1533.476562 271.917969 L 1514.453125 271.917969 L 1514.453125 255.289062 L 1532.34375 255.289062 C 1540.660156 255.289062 1547.925781 256.507812 1554.140625 258.941406 C 1560.355469 261.378906 1565.523438 264.714844 1569.640625 268.957031 C 1573.753906 273.203125 1576.84375 278.03125 1578.902344 283.449219 C 1580.960938 288.867188 1581.988281 294.472656 1581.988281 300.269531 L 1581.988281 303.042969 C 1581.988281 308.585938 1580.960938 314.046875 1578.902344 319.421875 C 1576.84375 324.796875 1573.753906 329.671875 1569.640625 334.039062 C 1565.523438 338.40625 1560.355469 341.894531 1554.140625 344.496094 C 1547.925781 347.101562 1540.660156 348.402344 1532.34375 348.402344 Z M 1499.078125 255.289062 L 1516.972656 255.289062 L 1516.972656 348.402344 L 1499.078125 348.402344 Z M 1499.078125 255.289062 "/>
<path style=" stroke:none;fill-rule:nonzero;fill:rgb(4.313725%,23.137255%,21.960784%);fill-opacity:1;" d="M 1609.203125 323.453125 L 1614.875 308.335938 L 1652.171875 308.335938 L 1657.714844 323.453125 Z M 1587.277344 347.898438 L 1618.652344 255.917969 L 1647.886719 255.917969 L 1680.144531 347.898438 L 1661.75 347.898438 L 1634.40625 268.140625 L 1640.832031 270.910156 L 1625.082031 270.910156 L 1631.632812 268.140625 L 1605.171875 347.898438 Z M 1587.277344 347.898438 "/>
<path style=" stroke:none;fill-rule:nonzero;fill:rgb(4.313725%,23.137255%,21.960784%);fill-opacity:1;" d="M 865.484375 415.558594 L 903.566406 415.558594 L 903.566406 535.953125 L 865.484375 535.953125 Z M 824.53125 386.484375 L 944.519531 386.484375 L 944.519531 419.652344 L 824.53125 419.652344 Z M 824.53125 386.484375 "/>
<path style=" stroke:none;fill-rule:nonzero;fill:rgb(4.313725%,23.137255%,21.960784%);fill-opacity:1;" d="M 998.367188 504.832031 L 1061.433594 504.832031 L 1061.433594 535.953125 L 998.367188 535.953125 Z M 998.367188 444.429688 L 1057.132812 444.429688 L 1057.132812 475.554688 L 998.367188 475.554688 Z M 998.367188 386.484375 L 1060.203125 386.484375 L 1060.203125 417.605469 L 998.367188 417.605469 Z M 965.605469 386.484375 L 1002.460938 386.484375 L 1002.460938 535.953125 L 965.605469 535.953125 Z M 965.605469 386.484375 "/>
<path style=" stroke:none;fill-rule:nonzero;fill:rgb(4.313725%,23.137255%,21.960784%);fill-opacity:1;" d="M 1178.753906 535.957031 L 1136.78125 472.480469 L 1178.140625 472.480469 L 1222.570312 535.957031 Z M 1117.125 490.089844 L 1117.125 460.808594 L 1152.957031 460.808594 C 1157.460938 460.808594 1161.351562 459.925781 1164.625 458.148438 C 1167.902344 456.375 1170.460938 453.847656 1172.304688 450.570312 C 1174.148438 447.296875 1175.070312 443.476562 1175.070312 439.105469 C 1175.070312 434.601562 1174.148438 430.710938 1172.304688 427.433594 C 1170.460938 424.15625 1167.902344 421.636719 1164.625 419.859375 C 1161.351562 418.085938 1157.460938 417.195312 1152.957031 417.195312 L 1117.125 417.195312 L 1117.125 385.257812 L 1150.703125 385.257812 C 1163.667969 385.257812 1174.863281 387.199219 1184.28125 391.089844 C 1193.703125 394.980469 1200.9375 400.714844 1205.988281 408.289062 C 1211.035156 415.863281 1213.5625 425.253906 1213.5625 436.441406 L 1213.5625 439.722656 C 1213.5625 450.914062 1211.003906 460.230469 1205.886719 467.667969 C 1200.765625 475.109375 1193.527344 480.707031 1184.179688 484.460938 C 1174.828125 488.214844 1163.667969 490.089844 1150.703125 490.089844 Z M 1088.664062 385.257812 L 1126.746094 385.257812 L 1126.746094 535.957031 L 1088.664062 535.957031 Z M 1088.664062 385.257812 "/>
<path style=" stroke:none;fill-rule:nonzero;fill:rgb(4.313725%,23.137255%,21.960784%);fill-opacity:1;" d="M 1242.023438 535.957031 L 1242.023438 386.484375 L 1304.472656 386.484375 L 1354.226562 505.648438 L 1361.394531 505.648438 L 1357.296875 509.335938 L 1357.296875 386.484375 L 1392.925781 386.484375 L 1392.925781 535.957031 L 1330.066406 535.957031 L 1280.3125 416.785156 L 1273.144531 416.785156 L 1277.242188 413.101562 L 1277.242188 535.957031 Z M 1242.023438 535.957031 "/>
<path style=" stroke:none;fill-rule:nonzero;fill:rgb(4.313725%,23.137255%,21.960784%);fill-opacity:1;" d="M 1488.957031 540.046875 C 1474.621094 540.046875 1462.507812 537.390625 1452.609375 532.066406 C 1442.714844 526.738281 1435.171875 519.199219 1429.984375 509.441406 C 1424.796875 499.683594 1422.207031 488.109375 1422.207031 474.734375 L 1422.207031 386.484375 L 1460.289062 386.484375 L 1460.289062 475.554688 C 1460.289062 481.421875 1461.417969 486.539062 1463.667969 490.90625 C 1465.921875 495.277344 1469.160156 498.621094 1473.394531 500.941406 C 1477.625 503.265625 1482.8125 504.421875 1488.957031 504.421875 C 1495.097656 504.421875 1500.285156 503.265625 1504.515625 500.941406 C 1508.746094 498.621094 1511.957031 495.3125 1514.140625 491.011719 C 1516.320312 486.710938 1517.417969 481.5625 1517.417969 475.554688 L 1517.417969 386.484375 L 1555.5 386.484375 L 1555.5 474.734375 C 1555.5 488.109375 1552.941406 499.683594 1547.820312 509.441406 C 1542.703125 519.199219 1535.195312 526.738281 1525.300781 532.066406 C 1515.398438 537.390625 1503.289062 540.046875 1488.957031 540.046875 "/>
<path style=" stroke:none;fill-rule:nonzero;fill:rgb(4.313725%,23.137255%,21.960784%);fill-opacity:1;" d="M 1674.871094 535.957031 L 1632.898438 472.480469 L 1674.257812 472.480469 L 1718.6875 535.957031 Z M 1613.242188 490.089844 L 1613.242188 460.808594 L 1649.074219 460.808594 C 1653.578125 460.808594 1657.46875 459.925781 1660.742188 458.148438 C 1664.019531 456.375 1666.578125 453.847656 1668.421875 450.570312 C 1670.265625 447.296875 1671.1875 443.476562 1671.1875 439.105469 C 1671.1875 434.601562 1670.265625 430.710938 1668.421875 427.433594 C 1666.578125 424.15625 1664.019531 421.636719 1660.742188 419.859375 C 1657.46875 418.085938 1653.578125 417.195312 1649.074219 417.195312 L 1613.242188 417.195312 L 1613.242188 385.257812 L 1646.820312 385.257812 C 1659.785156 385.257812 1670.980469 387.199219 1680.398438 391.089844 C 1689.820312 394.980469 1697.054688 400.714844 1702.105469 408.289062 C 1707.152344 415.863281 1709.679688 425.253906 1709.679688 436.441406 L 1709.679688 439.722656 C 1709.679688 450.914062 1707.121094 460.230469 1702.003906 467.667969 C 1696.882812 475.109375 1689.644531 480.707031 1680.296875 484.460938 C 1670.945312 488.214844 1659.785156 490.089844 1646.820312 490.089844 Z M 1584.78125 385.257812 L 1622.863281 385.257812 L 1622.863281 535.957031 L 1584.78125 535.957031 Z M 1584.78125 385.257812 "/>
<path style=" stroke:none;fill-rule:nonzero;fill:rgb(4.313725%,23.137255%,21.960784%);fill-opacity:1;" d="M 1763.734375 501.351562 L 1775.203125 470.230469 L 1831.917969 470.230469 L 1843.382812 501.351562 Z M 1724.625 535.957031 L 1772.539062 386.484375 L 1833.554688 386.484375 L 1883.105469 535.957031 L 1843.792969 535.957031 L 1805.300781 413.101562 L 1816.152344 417.199219 L 1789.125 417.199219 L 1800.179688 413.101562 L 1762.710938 535.957031 Z M 1724.625 535.957031 "/>
<path style=" stroke:none;fill-rule:nonzero;fill:rgb(4.313725%,23.137255%,21.960784%);fill-opacity:1;" d="M 557.609375 420.574219 C 546.792969 424.539062 532.929688 429.851562 530.269531 422.507812 C 529.308594 419.847656 530.792969 415.933594 533.910156 414.40625 C 547.902344 407.558594 561.683594 401.460938 575.082031 392.941406 C 603.726562 374.71875 636.3125 339.054688 635.492188 304.445312 C 635.214844 292.601562 629.917969 281.730469 620.28125 275.3125 C 611.359375 269.371094 600.644531 269.082031 590.265625 272.054688 C 586.300781 260.648438 578.503906 252.152344 568.886719 244.285156 C 578.789062 236.582031 588.519531 231.371094 599.886719 227.792969 C 626.242188 221.351562 654.710938 227.007812 675.839844 244.476562 C 712.167969 274.515625 718.976562 326.113281 705.449219 369.90625 C 693.542969 408.449219 669.921875 441.09375 640.742188 468.644531 C 615.882812 492.117188 588.949219 512.4375 558.816406 528.523438 C 551.449219 532.453125 544.488281 535.410156 536.675781 537.945312 C 526.003906 541.410156 515.214844 540.527344 505.03125 535.757812 C 490.644531 529.023438 477.78125 520.832031 464.652344 511.773438 C 405.046875 470.636719 343.789062 400.023438 340.96875 324.976562 C 338.6875 264.285156 377.894531 211.621094 439.34375 203.460938 C 471.660156 200.515625 503.695312 211.839844 526.882812 236.246094 C 512.699219 239.488281 501.097656 246.335938 492.402344 257.613281 C 476.496094 278.230469 474.847656 306.207031 487.082031 329.203125 C 496.042969 346.617188 511.378906 358.148438 530.105469 363.769531 L 544.0625 367.957031 C 547.878906 369.101562 550.011719 373.332031 550.328125 376.554688 C 551.226562 385.761719 540.0625 389.554688 531.042969 394.398438 C 509.199219 406.121094 489.515625 420.820312 483.613281 445.847656 C 477.675781 471.023438 493.050781 495.035156 518.339844 500.203125 C 528.964844 502.375 539.535156 501.472656 550.152344 498.386719 C 567.527344 493.339844 583.4375 485.246094 597.949219 474.628906 C 599.855469 473.238281 600.355469 470.609375 599.644531 468.863281 C 598.914062 467.074219 596.59375 464.902344 594.285156 465.851562 C 577.550781 472.714844 557.945312 480.957031 540.148438 481.6875 C 536.738281 481.828125 534.019531 479.046875 533.503906 476.324219 C 532.824219 472.742188 535.609375 470.199219 539.25 469.382812 C 557.59375 465.277344 574.792969 458.242188 590.636719 448.378906 C 593.292969 446.726562 594.265625 443.734375 592.984375 441.699219 C 591.402344 439.179688 588.960938 438.261719 586.097656 439.566406 C 567.308594 448.144531 541.636719 459.773438 521.964844 459.734375 C 518.472656 459.726562 515.859375 456.898438 515.558594 454.007812 C 515.261719 451.121094 517.671875 448.671875 521.003906 447.792969 C 542.8125 442.035156 563.410156 433.835938 582.785156 422.304688 C 585.085938 420.933594 586.46875 418.777344 586.015625 416.460938 C 585.671875 414.699219 582.917969 411.296875 580.628906 412.132812 Z M 557.609375 420.574219 "/>
<path style=" stroke:none;fill-rule:nonzero;fill:rgb(4.313725%,23.137255%,21.960784%);fill-opacity:1;" d="M 515.28125 236.742188 C 467.503906 198.269531 395.355469 212.734375 362.667969 263.140625 C 361.285156 265.273438 356.117188 273.316406 355.949219 274.6875 C 355.710938 276.617188 362.757812 289.921875 364.492188 292.820312 C 390.164062 335.683594 450.453125 358.921875 498.789062 351.015625 L 500.617188 351.390625 C 521.636719 370.292969 546.296875 365.753906 547.5625 376.585938 C 548.449219 384.203125 537.15625 388.007812 528.007812 393.058594 C 516.324219 399.515625 505.125 406.460938 496.339844 416.519531 C 488.542969 425.449219 483.019531 435.46875 480.609375 446.992188 C 475.386719 471.960938 490.210938 495.695312 514.8125 502.214844 C 527.261719 505.511719 539.796875 504.332031 552.289062 500.589844 C 569.214844 495.515625 584.726562 487.605469 598.859375 477.214844 C 601.949219 474.945312 603.183594 471.160156 602.101562 468.054688 C 600.964844 464.796875 597.78125 462.742188 594.328125 463.089844 C 593.679688 461.667969 594.421875 460.597656 596.546875 459.871094 L 593.90625 454.191406 C 588.941406 456.402344 586.691406 456.242188 587.144531 453.714844 C 589.898438 452.183594 593.007812 450.53125 594.96875 447.625 C 596.578125 445.242188 596.253906 442.351562 594.78125 440 C 593.722656 438.308594 591.871094 436.765625 589.429688 436.324219 C 586.832031 436.164062 587.625 433.742188 589.804688 432.726562 C 588.152344 429.65625 588.042969 426.863281 589.484375 424.34375 C 588.054688 424.710938 587.027344 424.808594 586.261719 423.285156 C 588.234375 420.59375 589.625 417.378906 588.042969 414.332031 C 586.566406 411.492188 583.101562 408.761719 579.632812 409.9375 L 565.996094 414.550781 C 555.550781 418.085938 534.875 427.492188 532.777344 421.011719 C 532.316406 419.582031 533.523438 417.695312 535.375 416.769531 C 561.554688 403.699219 581.441406 395.324219 602.773438 374.308594 C 624.550781 373.503906 644.753906 369.277344 664.417969 358.851562 C 679.964844 350.609375 696.617188 337.28125 706.835938 322.882812 C 706.371094 319.972656 706.972656 318.148438 708.648438 317.414062 C 711.820312 362.722656 692.523438 404.5625 663.953125 439.734375 C 641.371094 467.527344 606.632812 496.71875 576.148438 515.390625 C 563.65625 523.042969 551.4375 529.878906 537.734375 534.675781 C 527.640625 538.210938 517.5 538.085938 507.847656 533.769531 C 495.808594 528.386719 485.171875 521.910156 474.097656 514.671875 C 414.242188 475.539062 353.921875 409.269531 344.738281 336.332031 C 337.113281 275.78125 373.617188 216.847656 435.289062 207.078125 C 466.894531 202.074219 498.226562 213.085938 521.019531 234.65625 Z M 515.28125 236.742188 "/>
<path style=" stroke:none;fill-rule:nonzero;fill:rgb(4.313725%,23.137255%,21.960784%);fill-opacity:1;" d="M 515.28125 236.742188 C 491.425781 245.425781 474.777344 273.761719 476.066406 300.273438 C 477.035156 320.183594 486.117188 338.351562 500.617188 351.390625 C 500.238281 351.964844 499.492188 352.78125 498.519531 352.894531 C 485.574219 354.382812 473.101562 355.019531 459.925781 352.996094 C 415.757812 346.210938 368.558594 318.78125 354.386719 274.582031 C 360.03125 263.1875 366.765625 252.859375 376.054688 244.390625 L 384.703125 236.503906 C 413.074219 215.613281 443.1875 208.566406 477.910156 216.324219 C 492.066406 219.484375 504.628906 226.402344 515.941406 235.199219 C 515.851562 235.824219 515.46875 236.242188 515.28125 236.742188 "/>
<path style=" stroke:none;fill-rule:nonzero;fill:rgb(4.313725%,23.137255%,21.960784%);fill-opacity:1;" d="M 708.648438 317.414062 L 708.46875 323.425781 C 689.699219 348.191406 663.25 365.300781 632.875 372.386719 C 623.273438 374.625 614.191406 375.273438 604.351562 375.339844 C 603.402344 375.347656 602.902344 375.019531 602.773438 374.308594 C 621.886719 355.476562 641.824219 326.796875 637.789062 299.195312 C 635.65625 284.621094 626.371094 272.601562 612.183594 268.570312 C 605.464844 266.867188 598.996094 267.25 591.730469 268.484375 C 588.007812 258.484375 581.3125 251.027344 573.492188 244.5 C 589.726562 231.996094 608.535156 226.402344 628.351562 228.480469 C 675.371094 232.027344 705.523438 273.128906 708.648438 317.414062 "/>
<path style=" stroke:none;fill-rule:nonzero;fill:rgb(4.313725%,23.137255%,21.960784%);fill-opacity:1;" d="M 589.429688 436.324219 C 587.007812 436.480469 584.496094 437.375 582.375 438.347656 C 565.226562 446.230469 538.722656 457.617188 521.402344 456.75 C 519.722656 456.664062 518.492188 455.199219 518.371094 454.128906 C 518.210938 452.710938 519.125 451.390625 520.734375 450.878906 L 528.863281 448.292969 C 549.382812 442.714844 568.414062 434.039062 586.261719 423.285156 C 587.566406 422.5 590.734375 423.582031 591.808594 420.359375 C 593.238281 421.914062 593.003906 423.234375 593.117188 424.304688 C 593.195312 425.058594 590.664062 425.066406 590.347656 425.871094 C 589.183594 428.816406 591.335938 431.597656 593.484375 433.925781 C 591.765625 434.535156 590.53125 433.960938 589.785156 434.417969 C 589.355469 434.683594 589.480469 436.074219 589.429688 436.324219 "/>
<path style=" stroke:none;fill-rule:nonzero;fill:rgb(4.313725%,23.137255%,21.960784%);fill-opacity:1;" d="M 594.328125 463.089844 L 582.214844 467.886719 C 568.371094 473.371094 554.367188 477.855469 539.644531 479.085938 C 537.960938 479.226562 536.3125 477.3125 536.066406 476.277344 C 535.820312 475.242188 536.734375 472.910156 538.425781 472.519531 C 555.660156 468.5625 571.882812 462.199219 587.144531 453.714844 C 587.234375 454.347656 587.828125 454.523438 588.390625 454.308594 L 595.078125 451.78125 C 595.300781 455.816406 599.964844 459.699219 597.3125 461.296875 Z M 594.328125 463.089844 "/>
<path style=" stroke:none;fill-rule:nonzero;fill:rgb(4.313725%,23.137255%,21.960784%);fill-opacity:1;" d="M 685.488281 231.925781 C 673.722656 221.1875 659.925781 216.371094 645.328125 211.15625 C 644.28125 209.984375 646.871094 209.132812 648.363281 208.847656 C 687.132812 201.382812 723.859375 188.105469 758.746094 169.820312 C 767.40625 165.285156 776.238281 167.015625 781.398438 174.984375 C 786.390625 182.695312 783.449219 192.945312 774.910156 197.636719 C 746.722656 213.128906 716.984375 224.464844 685.488281 231.925781 "/>
<path style=" stroke:none;fill-rule:nonzero;fill:rgb(4.313725%,23.137255%,21.960784%);fill-opacity:1;" d="M 781.425781 180.539062 L 778.148438 181.652344 C 749.21875 199.289062 715.683594 215.015625 682.261719 222.011719 C 680.179688 222.449219 678.027344 222.140625 675.945312 221.828125 C 668.296875 216.714844 659.691406 213.484375 651.394531 210.816406 C 679.683594 204.753906 706.753906 196.945312 732.5625 184.90625 L 764.023438 170.230469 C 771.746094 166.625 780.011719 172.980469 781.425781 180.539062 "/>
<path style=" stroke:none;fill-rule:nonzero;fill:rgb(4.313725%,23.137255%,21.960784%);fill-opacity:1;" d="M 781.425781 180.539062 C 783.894531 193.757812 769.03125 198.511719 755.824219 204.914062 C 733.765625 215.605469 711.0625 223.542969 686.980469 229.199219 L 675.945312 221.828125 C 711.550781 213.601562 745.542969 200.359375 776.277344 180.847656 C 778.273438 179.582031 779.46875 179.039062 781.425781 180.539062 "/>
<path style=" stroke:none;fill-rule:nonzero;fill:rgb(4.313725%,23.137255%,21.960784%);fill-opacity:1;" d="M 577.160156 299.722656 C 577.160156 319.992188 560.730469 336.421875 540.460938 336.421875 C 520.191406 336.421875 503.761719 319.992188 503.761719 299.722656 C 503.761719 279.453125 520.191406 263.023438 540.460938 263.023438 C 560.730469 263.023438 577.160156 279.453125 577.160156 299.722656 "/>
<path style=" stroke:none;fill-rule:nonzero;fill:rgb(4.313725%,23.137255%,21.960784%);fill-opacity:1;" d="M 573.117188 289.160156 C 573.492188 293.570312 569.714844 296.996094 566.570312 299.828125 C 552.652344 312.363281 527.078125 313.203125 512.988281 300.667969 C 509.90625 297.925781 506.996094 295.035156 507.328125 290.65625 C 511.363281 276.039062 524.503906 265.792969 539.667969 265.449219 C 554.828125 265.101562 568.421875 274.738281 573.117188 289.160156 "/>
<path style=" stroke:none;fill-rule:nonzero;fill:rgb(4.313725%,23.137255%,21.960784%);fill-opacity:1;" d="M 507.328125 290.65625 C 513.59375 302.949219 525.890625 307.757812 540.058594 307.960938 C 553.832031 308.15625 566.0625 301.277344 573.117188 289.160156 C 577.671875 303.132812 572.828125 318.457031 561.070312 327.28125 C 549.3125 336.101562 533.246094 336.46875 521.101562 328.191406 C 508.953125 319.914062 503.417969 304.828125 507.328125 290.65625 "/>
<path style=" stroke:none;fill-rule:nonzero;fill:rgb(4.313725%,23.137255%,21.960784%);fill-opacity:1;" d="M 718.378906 276.96875 C 715.335938 266.226562 710.1875 258.339844 703.367188 249.5625 C 724.953125 243.992188 744.300781 236.191406 763.539062 226.675781 C 771.160156 222.90625 779.523438 227.730469 782.359375 234.183594 C 785.964844 242.386719 782.574219 250.183594 774.726562 254.390625 C 756.890625 263.949219 738.289062 270.691406 718.378906 276.96875 "/>
<path style=" stroke:none;fill-rule:nonzero;fill:rgb(4.313725%,23.137255%,21.960784%);fill-opacity:1;" d="M 719.890625 273.867188 C 717.21875 265.398438 713.132812 258.460938 707.367188 250.828125 C 727.632812 245.574219 746.472656 237.542969 765.460938 228.464844 C 771.867188 225.402344 778.949219 230.769531 780.859375 236.347656 C 783.078125 242.84375 780.054688 249.21875 773.617188 252.484375 C 756.769531 261.550781 739.25 267.992188 719.890625 273.867188 "/>
</g>
</svg>
