<?xml version="1.0" encoding="UTF-8"?>
<svg xmlns="http://www.w3.org/2000/svg" xmlns:xlink="http://www.w3.org/1999/xlink" width="2172pt" height="1372.55pt" viewBox="0 0 2172 1372.55" version="1.2">
<g id="surface1">
<path style=" stroke:none;fill-rule:nonzero;fill:rgb(97.254944%,65.490723%,60.00061%);fill-opacity:1;" d="M 787.988281 764.09375 L 787.988281 717.984375 L 791.25 720.507812 L 777.386719 720.507812 L 777.386719 709.980469 L 800.070312 709.980469 L 800.070312 764.09375 Z M 787.988281 764.09375 "/>
<path style=" stroke:none;fill-rule:nonzero;fill:rgb(97.254944%,65.490723%,60.00061%);fill-opacity:1;" d="M 857.070312 738.296875 L 857.070312 730.070312 L 855.292969 730.070312 L 855.292969 721.617188 C 855.292969 720.582031 855.09375 719.800781 854.699219 719.28125 C 854.300781 718.765625 853.535156 718.503906 852.398438 718.503906 C 851.855469 718.503906 850.957031 718.519531 849.695312 718.542969 C 848.433594 718.566406 847.039062 718.605469 845.507812 718.652344 C 843.972656 718.703125 842.566406 718.777344 841.28125 718.875 L 841.28125 710.054688 C 842.171875 709.957031 843.234375 709.882812 844.46875 709.832031 C 845.703125 709.785156 846.953125 709.734375 848.210938 709.683594 C 849.472656 709.636719 850.570312 709.609375 851.511719 709.609375 C 854.476562 709.609375 856.996094 710.066406 859.070312 710.980469 C 861.148438 711.898438 862.742188 713.230469 863.851562 714.984375 C 864.964844 716.738281 865.519531 718.902344 865.519531 721.46875 L 865.519531 738.296875 Z M 848.398438 739.039062 C 845.480469 739.039062 843.070312 738.234375 841.171875 736.628906 C 839.265625 735.023438 838.316406 732.835938 838.316406 730.070312 C 838.316406 727.84375 838.910156 726.089844 840.097656 724.804688 C 841.28125 723.523438 842.898438 722.570312 844.949219 721.953125 C 847 721.335938 849.3125 721.027344 851.882812 721.027344 L 856.550781 721.027344 L 856.550781 726.4375 L 851.957031 726.4375 C 850.96875 726.4375 850.199219 726.695312 849.65625 727.214844 C 849.113281 727.734375 848.84375 728.414062 848.84375 729.253906 C 848.84375 730.042969 849.101562 730.6875 849.621094 731.179688 C 850.140625 731.675781 850.917969 731.921875 851.957031 731.921875 C 852.648438 731.921875 853.226562 731.800781 853.695312 731.550781 C 854.167969 731.304688 854.535156 730.882812 854.808594 730.289062 C 855.082031 729.699219 855.242188 728.90625 855.292969 727.917969 L 857.738281 730.140625 C 857.441406 732.960938 856.539062 735.148438 855.03125 736.703125 C 853.523438 738.257812 851.3125 739.039062 848.398438 739.039062 "/>
<path style=" stroke:none;fill-rule:nonzero;fill:rgb(97.254944%,65.490723%,60.00061%);fill-opacity:1;" d="M 960.175781 754.011719 L 983.820312 754.011719 L 983.820312 764.09375 L 960.175781 764.09375 Z M 960.175781 731.550781 L 982.117188 731.550781 L 982.117188 741.632812 L 960.175781 741.632812 Z M 960.175781 709.980469 L 983.300781 709.980469 L 983.300781 720.0625 L 960.175781 720.0625 Z M 949.796875 709.980469 L 961.65625 709.980469 L 961.65625 764.09375 L 949.796875 764.09375 Z M 949.796875 709.980469 "/>
<path style=" stroke:none;fill-rule:nonzero;fill:rgb(97.254944%,65.490723%,60.00061%);fill-opacity:1;" d="M 1034.152344 764.386719 L 1034.152344 753.046875 L 1044.230469 753.046875 C 1046.75 753.046875 1049.023438 752.664062 1051.050781 751.898438 C 1053.078125 751.132812 1054.804688 750.042969 1056.238281 748.636719 C 1057.671875 747.226562 1058.757812 745.523438 1059.5 743.523438 C 1060.242188 741.519531 1060.613281 739.308594 1060.613281 736.886719 C 1060.613281 734.367188 1060.242188 732.121094 1059.5 730.140625 C 1058.757812 728.167969 1057.671875 726.484375 1056.238281 725.101562 C 1054.804688 723.71875 1053.078125 722.667969 1051.050781 721.953125 C 1049.023438 721.238281 1046.75 720.878906 1044.230469 720.878906 L 1034.152344 720.878906 L 1034.152344 709.535156 L 1043.566406 709.535156 C 1048.457031 709.535156 1052.730469 710.253906 1056.386719 711.683594 C 1060.042969 713.121094 1063.105469 715.070312 1065.578125 717.542969 C 1068.050781 720.011719 1069.890625 722.839844 1071.101562 726.027344 C 1072.3125 729.214844 1072.917969 732.5625 1072.917969 736.070312 L 1072.917969 737.703125 C 1072.917969 740.964844 1072.3125 744.1875 1071.101562 747.375 C 1069.890625 750.5625 1068.050781 753.429688 1065.578125 755.976562 C 1063.105469 758.519531 1060.042969 760.558594 1056.386719 762.089844 C 1052.730469 763.621094 1048.457031 764.386719 1043.566406 764.386719 Z M 1023.476562 709.535156 L 1035.632812 709.535156 L 1035.632812 764.386719 L 1023.476562 764.386719 Z M 1023.476562 709.535156 "/>
<path style=" stroke:none;fill-rule:nonzero;fill:rgb(97.254944%,65.490723%,60.00061%);fill-opacity:1;" d="M 1111.164062 709.980469 L 1123.320312 709.980469 L 1123.320312 764.09375 L 1111.164062 764.09375 Z M 1111.164062 709.980469 "/>
<path style=" stroke:none;fill-rule:nonzero;fill:rgb(97.254944%,65.490723%,60.00061%);fill-opacity:1;" d="M 1189.734375 784.550781 C 1188.5 784.550781 1187.300781 784.460938 1186.140625 784.289062 C 1184.980469 784.117188 1184.050781 783.90625 1183.363281 783.660156 L 1183.363281 776.101562 C 1184.101562 776.296875 1184.980469 776.492188 1185.992188 776.695312 C 1187.003906 776.890625 1188.078125 776.988281 1189.214844 776.988281 C 1190.699219 776.988281 1191.8125 776.816406 1192.550781 776.472656 C 1193.292969 776.121094 1193.664062 775.605469 1193.664062 774.914062 C 1193.664062 774.371094 1193.390625 773.949219 1192.847656 773.652344 C 1192.304688 773.355469 1191.441406 773.207031 1190.253906 773.207031 L 1186.328125 773.207031 L 1186.328125 763.128906 L 1193.960938 763.128906 L 1193.960938 770.46875 L 1189.367188 767.277344 L 1190.402344 767.277344 C 1193.859375 767.277344 1196.59375 767.933594 1198.59375 769.242188 C 1200.59375 770.550781 1201.59375 772.515625 1201.59375 775.136719 C 1201.59375 777.753906 1200.570312 779.980469 1198.519531 781.808594 C 1196.46875 783.632812 1193.542969 784.550781 1189.734375 784.550781 M 1190.105469 765.5 C 1185.214844 765.5 1181.011719 764.648438 1177.503906 762.941406 C 1173.996094 761.238281 1171.128906 758.992188 1168.90625 756.199219 C 1166.683594 753.40625 1165.039062 750.390625 1163.976562 747.15625 C 1162.914062 743.917969 1162.382812 740.765625 1162.382812 737.703125 L 1162.382812 736.070312 C 1162.382812 732.714844 1162.925781 729.390625 1164.015625 726.101562 C 1165.101562 722.816406 1166.769531 719.839844 1169.015625 717.171875 C 1171.265625 714.503906 1174.105469 712.367188 1177.542969 710.761719 C 1180.976562 709.152344 1185.042969 708.351562 1189.734375 708.351562 C 1194.628906 708.351562 1198.953125 709.265625 1202.707031 711.09375 C 1206.460938 712.921875 1209.464844 715.453125 1211.714844 718.691406 C 1213.960938 721.925781 1215.28125 725.71875 1215.679688 730.066406 L 1203.449219 730.066406 C 1203.101562 727.894531 1202.3125 726.042969 1201.078125 724.507812 C 1199.839844 722.976562 1198.246094 721.792969 1196.296875 720.953125 C 1194.34375 720.113281 1192.15625 719.691406 1189.734375 719.691406 C 1187.3125 719.691406 1185.164062 720.113281 1183.289062 720.953125 C 1181.410156 721.792969 1179.839844 722.976562 1178.582031 724.507812 C 1177.320312 726.042969 1176.355469 727.859375 1175.6875 729.957031 C 1175.023438 732.058594 1174.6875 734.394531 1174.6875 736.960938 C 1174.6875 739.484375 1175.023438 741.792969 1175.6875 743.890625 C 1176.355469 745.992188 1177.34375 747.820312 1178.652344 749.378906 C 1179.964844 750.933594 1181.582031 752.121094 1183.507812 752.933594 C 1185.4375 753.75 1187.632812 754.160156 1190.105469 754.160156 C 1193.859375 754.160156 1197.035156 753.246094 1199.632812 751.417969 C 1202.226562 749.589844 1203.792969 747.070312 1204.335938 743.855469 L 1216.496094 743.855469 C 1216.050781 747.808594 1214.726562 751.429688 1212.527344 754.714844 C 1210.328125 758 1207.339844 760.621094 1203.558594 762.574219 C 1199.78125 764.523438 1195.296875 765.5 1190.105469 765.5 "/>
<path style=" stroke:none;fill-rule:nonzero;fill:rgb(97.254944%,65.490723%,60.00061%);fill-opacity:1;" d="M 1262.15625 750.675781 L 1265.859375 740.59375 L 1287.0625 740.59375 L 1290.839844 750.675781 Z M 1282.910156 705.832031 C 1281.378906 705.832031 1280.054688 705.632812 1278.945312 705.238281 C 1277.832031 704.839844 1276.84375 704.382812 1275.980469 703.867188 C 1275.113281 703.347656 1274.210938 702.890625 1273.273438 702.496094 C 1272.335938 702.097656 1271.246094 701.902344 1270.011719 701.902344 C 1268.429688 701.902344 1267.058594 702.1875 1265.898438 702.753906 C 1264.734375 703.324219 1263.808594 704.027344 1263.117188 704.867188 L 1261.339844 696.859375 C 1262.179688 695.824219 1263.316406 694.945312 1264.75 694.230469 C 1266.183594 693.511719 1267.9375 693.15625 1270.011719 693.15625 C 1271.59375 693.15625 1272.925781 693.351562 1274.015625 693.75 C 1275.101562 694.144531 1276.089844 694.601562 1276.980469 695.117188 C 1277.871094 695.636719 1278.785156 696.09375 1279.722656 696.492188 C 1280.660156 696.886719 1281.75 697.082031 1282.984375 697.082031 C 1284.566406 697.082031 1285.9375 696.789062 1287.097656 696.195312 C 1288.257812 695.601562 1289.183594 694.886719 1289.878906 694.046875 L 1291.65625 702.125 C 1290.816406 703.160156 1289.679688 704.039062 1288.246094 704.753906 C 1286.8125 705.472656 1285.035156 705.832031 1282.910156 705.832031 M 1248.589844 764.09375 L 1266.453125 709.980469 L 1286.097656 709.980469 L 1304.628906 764.09375 L 1292.027344 764.09375 L 1277.054688 718.355469 L 1280.910156 719.914062 L 1271.347656 719.914062 L 1275.347656 718.355469 L 1260.746094 764.09375 Z M 1248.589844 764.09375 "/>
<path style=" stroke:none;fill-rule:nonzero;fill:rgb(97.254944%,65.490723%,60.00061%);fill-opacity:1;" d="M 1365.039062 754.160156 C 1367.609375 754.160156 1369.917969 753.714844 1371.96875 752.824219 C 1374.019531 751.933594 1375.773438 750.699219 1377.230469 749.117188 C 1378.6875 747.535156 1379.789062 745.710938 1380.53125 743.632812 C 1381.273438 741.558594 1381.644531 739.335938 1381.644531 736.960938 C 1381.644531 734.441406 1381.261719 732.132812 1380.496094 730.03125 C 1379.726562 727.933594 1378.617188 726.101562 1377.160156 724.546875 C 1375.699219 722.988281 1373.957031 721.792969 1371.933594 720.953125 C 1369.90625 720.113281 1367.609375 719.691406 1365.039062 719.691406 C 1362.46875 719.691406 1360.171875 720.113281 1358.144531 720.953125 C 1356.117188 721.792969 1354.375 722.988281 1352.921875 724.546875 C 1351.460938 726.101562 1350.363281 727.933594 1349.621094 730.03125 C 1348.878906 732.132812 1348.511719 734.441406 1348.511719 736.960938 C 1348.511719 739.335938 1348.878906 741.558594 1349.621094 743.632812 C 1350.363281 745.710938 1351.460938 747.535156 1352.921875 749.117188 C 1354.375 750.699219 1356.117188 751.933594 1358.144531 752.824219 C 1360.171875 753.714844 1362.46875 754.160156 1365.039062 754.160156 M 1365.039062 765.5 C 1360.148438 765.5 1355.886719 764.648438 1352.253906 762.941406 C 1348.621094 761.238281 1345.617188 758.988281 1343.246094 756.195312 C 1340.875 753.40625 1339.109375 750.378906 1337.945312 747.117188 C 1336.785156 743.855469 1336.203125 740.71875 1336.203125 737.703125 L 1336.203125 736.070312 C 1336.203125 732.710938 1336.808594 729.390625 1338.019531 726.101562 C 1339.230469 722.816406 1341.046875 719.839844 1343.46875 717.171875 C 1345.890625 714.503906 1348.902344 712.367188 1352.511719 710.761719 C 1356.117188 709.152344 1360.296875 708.351562 1365.039062 708.351562 C 1369.78125 708.351562 1373.957031 709.152344 1377.566406 710.761719 C 1381.171875 712.367188 1384.1875 714.503906 1386.609375 717.171875 C 1389.03125 719.839844 1390.859375 722.816406 1392.09375 726.101562 C 1393.328125 729.390625 1393.949219 732.710938 1393.949219 736.070312 L 1393.949219 737.703125 C 1393.949219 740.71875 1393.355469 743.855469 1392.167969 747.117188 C 1390.984375 750.378906 1389.203125 753.40625 1386.832031 756.195312 C 1384.460938 758.988281 1381.457031 761.238281 1377.824219 762.941406 C 1374.195312 764.648438 1369.933594 765.5 1365.039062 765.5 "/>
<path style=" stroke:none;fill-rule:nonzero;fill:rgb(97.254944%,65.490723%,60.00061%);fill-opacity:1;" d="M 611.378906 922.289062 C 600.941406 922.289062 591.980469 920.445312 584.496094 916.753906 C 577.007812 913.066406 570.921875 908.269531 566.230469 902.363281 C 561.539062 896.460938 558.085938 890.03125 555.875 883.074219 C 553.660156 876.117188 552.550781 869.421875 552.550781 862.992188 L 552.550781 859.511719 C 552.550781 852.34375 553.683594 845.28125 555.953125 838.320312 C 558.21875 831.363281 561.722656 825.039062 566.46875 819.347656 C 571.210938 813.652344 577.246094 809.09375 584.574219 805.667969 C 591.902344 802.242188 600.570312 800.527344 610.585938 800.527344 C 621.023438 800.527344 630.117188 802.402344 637.863281 806.140625 C 645.613281 809.886719 651.804688 815.15625 656.445312 821.957031 C 661.082031 828.753906 663.878906 836.6875 664.828125 845.753906 L 642.214844 845.753906 C 641.367188 840.484375 639.5 836.03125 636.597656 832.390625 C 633.699219 828.753906 630.039062 826.015625 625.609375 824.167969 C 621.183594 822.324219 616.171875 821.402344 610.585938 821.402344 C 604.894531 821.402344 599.835938 822.378906 595.40625 824.328125 C 590.980469 826.277344 587.289062 829.046875 584.335938 832.628906 C 581.382812 836.214844 579.144531 840.433594 577.617188 845.28125 C 576.085938 850.128906 575.324219 855.507812 575.324219 861.410156 C 575.324219 867.101562 576.085938 872.375 577.617188 877.222656 C 579.144531 882.074219 581.4375 886.316406 584.496094 889.953125 C 587.550781 893.589844 591.320312 896.410156 595.800781 898.410156 C 600.28125 900.417969 605.472656 901.414062 611.378906 901.414062 C 620.019531 901.414062 627.320312 899.28125 633.277344 895.011719 C 639.234375 890.742188 642.847656 884.761719 644.109375 877.066406 L 666.722656 877.066406 C 665.667969 885.285156 662.875 892.824219 658.34375 899.675781 C 653.808594 906.53125 647.589844 912.011719 639.683594 916.121094 C 631.777344 920.234375 622.339844 922.289062 611.378906 922.289062 "/>
<path style=" stroke:none;fill-rule:nonzero;fill:rgb(97.254944%,65.490723%,60.00061%);fill-opacity:1;" d="M 742.308594 901.417969 C 748.214844 901.417969 753.511719 900.363281 758.203125 898.253906 C 762.890625 896.148438 766.898438 893.222656 770.222656 889.476562 C 773.539062 885.734375 776.070312 881.46875 777.8125 876.667969 C 779.550781 871.871094 780.417969 866.785156 780.417969 861.410156 C 780.417969 855.613281 779.550781 850.289062 777.8125 845.4375 C 776.070312 840.589844 773.539062 836.375 770.222656 832.789062 C 766.898438 829.207031 762.867188 826.410156 758.121094 824.40625 C 753.378906 822.40625 748.105469 821.402344 742.308594 821.402344 C 736.40625 821.402344 731.082031 822.40625 726.339844 824.40625 C 721.59375 826.410156 717.5625 829.207031 714.242188 832.789062 C 710.921875 836.375 708.390625 840.589844 706.652344 845.4375 C 704.914062 850.289062 704.042969 855.613281 704.042969 861.410156 C 704.042969 866.785156 704.914062 871.871094 706.652344 876.667969 C 708.390625 881.46875 710.921875 885.734375 714.242188 889.476562 C 717.5625 893.222656 721.59375 896.148438 726.339844 898.253906 C 731.082031 900.363281 736.40625 901.417969 742.308594 901.417969 M 742.308594 922.289062 C 731.875 922.289062 722.832031 920.445312 715.191406 916.753906 C 707.546875 913.066406 701.21875 908.242188 696.214844 902.285156 C 691.207031 896.332031 687.464844 889.898438 684.988281 882.996094 C 682.507812 876.089844 681.269531 869.421875 681.269531 862.992188 L 681.269531 859.511719 C 681.269531 852.449219 682.535156 845.414062 685.066406 838.402344 C 687.597656 831.390625 691.417969 825.039062 696.53125 819.347656 C 701.644531 813.652344 707.996094 809.09375 715.585938 805.667969 C 723.175781 802.242188 732.085938 800.527344 742.308594 800.527344 C 752.429688 800.527344 761.285156 802.242188 768.875 805.667969 C 776.464844 809.09375 782.816406 813.652344 787.929688 819.347656 C 793.042969 825.039062 796.863281 831.390625 799.394531 838.402344 C 801.925781 845.414062 803.191406 852.449219 803.191406 859.511719 L 803.191406 862.992188 C 803.191406 869.421875 801.949219 876.089844 799.476562 882.996094 C 796.996094 889.898438 793.253906 896.332031 788.246094 902.285156 C 783.238281 908.242188 776.914062 913.066406 769.273438 916.753906 C 761.625 920.445312 752.640625 922.289062 742.308594 922.289062 "/>
<path style=" stroke:none;fill-rule:nonzero;fill:rgb(97.254944%,65.490723%,60.00061%);fill-opacity:1;" d="M 897.75 919.285156 L 862.328125 869 L 887.472656 869 L 924 919.285156 Z M 843.039062 880.699219 L 843.039062 862.515625 L 872.449219 862.515625 C 876.5625 862.515625 880.117188 861.671875 883.125 859.988281 C 886.128906 858.300781 888.472656 855.929688 890.160156 852.871094 C 891.847656 849.8125 892.691406 846.335938 892.691406 842.433594 C 892.691406 838.429688 891.847656 834.898438 890.160156 831.839844 C 888.472656 828.78125 886.128906 826.410156 883.125 824.722656 C 880.117188 823.039062 876.5625 822.191406 872.449219 822.191406 L 843.039062 822.191406 L 843.039062 803.058594 L 870.078125 803.058594 C 879.355469 803.058594 887.394531 804.429688 894.195312 807.171875 C 900.992188 809.914062 906.234375 814.074219 909.929688 819.664062 C 913.617188 825.253906 915.460938 832.261719 915.460938 840.695312 L 915.460938 843.222656 C 915.460938 851.761719 913.589844 858.777344 909.847656 864.253906 C 906.105469 869.738281 900.859375 873.847656 894.113281 876.589844 C 887.367188 879.332031 879.355469 880.699219 870.078125 880.699219 Z M 827.222656 803.058594 L 849.679688 803.058594 L 849.679688 919.285156 L 827.222656 919.285156 Z M 827.222656 803.058594 "/>
<path style=" stroke:none;fill-rule:nonzero;fill:rgb(97.254944%,65.490723%,60.00061%);fill-opacity:1;" d="M 1013.976562 919.285156 L 978.554688 869 L 1003.695312 869 L 1040.226562 919.285156 Z M 959.261719 880.699219 L 959.261719 862.515625 L 988.675781 862.515625 C 992.785156 862.515625 996.34375 861.671875 999.347656 859.988281 C 1002.355469 858.300781 1004.699219 855.929688 1006.386719 852.871094 C 1008.070312 849.8125 1008.914062 846.335938 1008.914062 842.433594 C 1008.914062 838.429688 1008.070312 834.898438 1006.386719 831.839844 C 1004.699219 828.78125 1002.355469 826.410156 999.347656 824.722656 C 996.34375 823.039062 992.785156 822.191406 988.675781 822.191406 L 959.261719 822.191406 L 959.261719 803.058594 L 986.304688 803.058594 C 995.578125 803.058594 1003.617188 804.429688 1010.417969 807.171875 C 1017.21875 809.914062 1022.460938 814.074219 1026.152344 819.664062 C 1029.839844 825.253906 1031.6875 832.261719 1031.6875 840.695312 L 1031.6875 843.222656 C 1031.6875 851.761719 1029.8125 858.777344 1026.074219 864.253906 C 1022.328125 869.738281 1017.082031 873.847656 1010.339844 876.589844 C 1003.589844 879.332031 995.578125 880.699219 986.304688 880.699219 Z M 943.449219 803.058594 L 965.902344 803.058594 L 965.902344 919.285156 L 943.449219 919.285156 Z M 943.449219 803.058594 "/>
<path style=" stroke:none;fill-rule:nonzero;fill:rgb(97.254944%,65.490723%,60.00061%);fill-opacity:1;" d="M 1059.988281 803.847656 L 1082.445312 803.847656 L 1082.445312 919.285156 L 1059.988281 919.285156 Z M 1059.988281 803.847656 "/>
<path style=" stroke:none;fill-rule:nonzero;fill:rgb(97.254944%,65.490723%,60.00061%);fill-opacity:1;" d="M 1132.886719 919.917969 L 1132.886719 899.042969 L 1156.765625 899.042969 C 1162.773438 899.042969 1168.121094 898.121094 1172.816406 896.277344 C 1177.503906 894.433594 1181.484375 891.824219 1184.753906 888.449219 C 1188.019531 885.078125 1190.523438 881.097656 1192.265625 876.511719 C 1194.003906 871.925781 1194.875 866.839844 1194.875 861.25 C 1194.875 855.453125 1194.003906 850.261719 1192.265625 845.675781 C 1190.523438 841.089844 1188.019531 837.164062 1184.753906 833.894531 C 1181.484375 830.628906 1177.503906 828.148438 1172.816406 826.460938 C 1168.121094 824.777344 1162.773438 823.929688 1156.765625 823.929688 L 1132.886719 823.929688 L 1132.886719 803.058594 L 1155.339844 803.058594 C 1165.777344 803.058594 1174.894531 804.589844 1182.699219 807.644531 C 1190.496094 810.703125 1196.980469 814.894531 1202.148438 820.214844 C 1207.3125 825.539062 1211.1875 831.601562 1213.769531 838.402344 C 1216.351562 845.199219 1217.644531 852.238281 1217.644531 859.511719 L 1217.644531 862.992188 C 1217.644531 869.949219 1216.351562 876.800781 1213.769531 883.546875 C 1211.1875 890.292969 1207.3125 896.410156 1202.148438 901.890625 C 1196.980469 907.371094 1190.496094 911.75 1182.699219 915.015625 C 1174.894531 918.285156 1165.777344 919.917969 1155.339844 919.917969 Z M 1113.59375 803.058594 L 1136.050781 803.058594 L 1136.050781 919.917969 L 1113.59375 919.917969 Z M 1113.59375 803.058594 "/>
<path style=" stroke:none;fill-rule:nonzero;fill:rgb(97.254944%,65.490723%,60.00061%);fill-opacity:1;" d="M 1251.800781 888.609375 L 1258.914062 869.632812 L 1305.722656 869.632812 L 1312.679688 888.609375 Z M 1224.285156 919.285156 L 1263.660156 803.851562 L 1300.347656 803.851562 L 1340.828125 919.285156 L 1317.742188 919.285156 L 1283.425781 819.1875 L 1291.488281 822.667969 L 1271.722656 822.667969 L 1279.945312 819.1875 L 1246.738281 919.285156 Z M 1224.285156 919.285156 "/>
<path style=" stroke:none;fill-rule:nonzero;fill:rgb(97.254944%,65.490723%,60.00061%);fill-opacity:1;" d="M 1416.097656 919.917969 L 1416.097656 899.042969 L 1439.972656 899.042969 C 1445.980469 899.042969 1451.332031 898.121094 1456.023438 896.277344 C 1460.714844 894.433594 1464.695312 891.824219 1467.960938 888.449219 C 1471.230469 885.078125 1473.734375 881.097656 1475.472656 876.511719 C 1477.214844 871.925781 1478.082031 866.839844 1478.082031 861.25 C 1478.082031 855.453125 1477.214844 850.261719 1475.472656 845.675781 C 1473.734375 841.089844 1471.230469 837.164062 1467.960938 833.894531 C 1464.695312 830.628906 1460.714844 828.148438 1456.023438 826.460938 C 1451.332031 824.777344 1445.980469 823.929688 1439.972656 823.929688 L 1416.097656 823.929688 L 1416.097656 803.058594 L 1438.550781 803.058594 C 1448.984375 803.058594 1458.105469 804.589844 1465.90625 807.644531 C 1473.707031 810.703125 1480.191406 814.894531 1485.355469 820.214844 C 1490.519531 825.539062 1494.394531 831.601562 1496.980469 838.402344 C 1499.5625 845.199219 1500.855469 852.238281 1500.855469 859.511719 L 1500.855469 862.992188 C 1500.855469 869.949219 1499.5625 876.800781 1496.980469 883.546875 C 1494.394531 890.292969 1490.519531 896.410156 1485.355469 901.890625 C 1480.191406 907.371094 1473.707031 911.75 1465.90625 915.015625 C 1458.105469 918.285156 1448.984375 919.917969 1438.550781 919.917969 Z M 1396.804688 803.058594 L 1419.257812 803.058594 L 1419.257812 919.917969 L 1396.804688 919.917969 Z M 1396.804688 803.058594 "/>
<path style=" stroke:none;fill-rule:nonzero;fill:rgb(97.254944%,65.490723%,60.00061%);fill-opacity:1;" d="M 1535.007812 888.609375 L 1542.125 869.632812 L 1588.929688 869.632812 L 1595.886719 888.609375 Z M 1507.492188 919.285156 L 1546.867188 803.851562 L 1583.554688 803.851562 L 1624.035156 919.285156 L 1600.949219 919.285156 L 1566.632812 819.1875 L 1574.699219 822.667969 L 1554.933594 822.667969 L 1563.15625 819.1875 L 1529.949219 919.285156 Z M 1507.492188 919.285156 "/>
<path style=" stroke:none;fill-rule:nonzero;fill:rgb(97.254944%,65.490723%,60.00061%);fill-opacity:1;" d="M 474.691406 1004.195312 L 522.484375 1004.195312 L 522.484375 1155.289062 L 474.691406 1155.289062 Z M 423.296875 967.707031 L 573.878906 967.707031 L 573.878906 1009.335938 L 423.296875 1009.335938 Z M 423.296875 967.707031 "/>
<path style=" stroke:none;fill-rule:nonzero;fill:rgb(97.254944%,65.490723%,60.00061%);fill-opacity:1;" d="M 641.457031 1116.230469 L 720.601562 1116.230469 L 720.601562 1155.289062 L 641.457031 1155.289062 Z M 641.457031 1040.425781 L 715.207031 1040.425781 L 715.207031 1079.484375 L 641.457031 1079.484375 Z M 641.457031 967.707031 L 719.058594 967.707031 L 719.058594 1006.765625 L 641.457031 1006.765625 Z M 600.34375 967.707031 L 646.597656 967.707031 L 646.597656 1155.289062 L 600.34375 1155.289062 Z M 600.34375 967.707031 "/>
<path style=" stroke:none;fill-rule:nonzero;fill:rgb(97.254944%,65.490723%,60.00061%);fill-opacity:1;" d="M 867.839844 1155.289062 L 815.164062 1075.632812 L 867.070312 1075.632812 L 922.832031 1155.289062 Z M 790.496094 1097.730469 L 790.496094 1060.984375 L 835.464844 1060.984375 C 841.117188 1060.984375 846 1059.871094 850.113281 1057.644531 C 854.222656 1055.421875 857.433594 1052.246094 859.746094 1048.136719 C 862.058594 1044.027344 863.214844 1039.230469 863.214844 1033.746094 C 863.214844 1028.09375 862.058594 1023.210938 859.746094 1019.101562 C 857.433594 1014.988281 854.222656 1011.820312 850.113281 1009.589844 C 846 1007.367188 841.117188 1006.25 835.464844 1006.25 L 790.496094 1006.25 L 790.496094 966.164062 L 832.636719 966.164062 C 848.910156 966.164062 862.957031 968.605469 874.777344 973.488281 C 886.601562 978.371094 895.679688 985.566406 902.019531 995.074219 C 908.351562 1004.582031 911.523438 1016.359375 911.523438 1030.40625 L 911.523438 1034.515625 C 911.523438 1048.566406 908.3125 1060.257812 901.890625 1069.59375 C 895.464844 1078.933594 886.382812 1085.957031 874.652344 1090.664062 C 862.914062 1095.378906 848.910156 1097.730469 832.636719 1097.730469 Z M 754.777344 966.164062 L 802.574219 966.164062 L 802.574219 1155.289062 L 754.777344 1155.289062 Z M 754.777344 966.164062 "/>
<path style=" stroke:none;fill-rule:nonzero;fill:rgb(97.254944%,65.490723%,60.00061%);fill-opacity:1;" d="M 947.242188 1155.289062 L 947.242188 967.707031 L 1025.613281 967.707031 L 1088.054688 1117.257812 L 1097.050781 1117.257812 L 1091.910156 1121.886719 L 1091.910156 967.707031 L 1136.621094 967.707031 L 1136.621094 1155.289062 L 1057.734375 1155.289062 L 995.292969 1005.738281 L 986.300781 1005.738281 L 991.4375 1001.113281 L 991.4375 1155.289062 Z M 947.242188 1155.289062 "/>
<path style=" stroke:none;fill-rule:nonzero;fill:rgb(97.254944%,65.490723%,60.00061%);fill-opacity:1;" d="M 1257.136719 1160.429688 C 1239.148438 1160.429688 1223.945312 1157.089844 1211.527344 1150.410156 C 1199.101562 1143.726562 1189.640625 1134.261719 1183.132812 1122.011719 C 1176.617188 1109.765625 1173.367188 1095.25 1173.367188 1078.457031 L 1173.367188 967.707031 L 1221.160156 967.707031 L 1221.160156 1079.488281 C 1221.160156 1086.851562 1222.574219 1093.277344 1225.402344 1098.757812 C 1228.230469 1104.242188 1232.296875 1108.4375 1237.609375 1111.347656 C 1242.914062 1114.265625 1249.429688 1115.71875 1257.136719 1115.71875 C 1264.847656 1115.71875 1271.355469 1114.265625 1276.664062 1111.347656 C 1281.972656 1108.4375 1286 1104.285156 1288.742188 1098.886719 C 1291.480469 1093.488281 1292.855469 1087.027344 1292.855469 1079.488281 L 1292.855469 967.707031 L 1340.648438 967.707031 L 1340.648438 1078.457031 C 1340.648438 1095.25 1337.4375 1109.765625 1331.015625 1122.011719 C 1324.589844 1134.261719 1315.167969 1143.726562 1302.75 1150.410156 C 1290.324219 1157.089844 1275.125 1160.429688 1257.136719 1160.429688 "/>
<path style=" stroke:none;fill-rule:nonzero;fill:rgb(97.254944%,65.490723%,60.00061%);fill-opacity:1;" d="M 1490.457031 1155.289062 L 1437.78125 1075.632812 L 1489.6875 1075.632812 L 1545.449219 1155.289062 Z M 1413.113281 1097.730469 L 1413.113281 1060.984375 L 1458.082031 1060.984375 C 1463.734375 1060.984375 1468.617188 1059.871094 1472.730469 1057.644531 C 1476.839844 1055.421875 1480.050781 1052.246094 1482.363281 1048.136719 C 1484.675781 1044.027344 1485.832031 1039.230469 1485.832031 1033.746094 C 1485.832031 1028.09375 1484.675781 1023.210938 1482.363281 1019.101562 C 1480.050781 1014.988281 1476.839844 1011.820312 1472.730469 1009.589844 C 1468.617188 1007.367188 1463.734375 1006.25 1458.082031 1006.25 L 1413.113281 1006.25 L 1413.113281 966.164062 L 1455.253906 966.164062 C 1471.527344 966.164062 1485.574219 968.605469 1497.394531 973.488281 C 1509.21875 978.371094 1518.296875 985.566406 1524.636719 995.074219 C 1530.96875 1004.582031 1534.140625 1016.359375 1534.140625 1030.40625 L 1534.140625 1034.515625 C 1534.140625 1048.566406 1530.929688 1060.257812 1524.507812 1069.59375 C 1518.082031 1078.933594 1509 1085.957031 1497.269531 1090.664062 C 1485.53125 1095.378906 1471.527344 1097.730469 1455.253906 1097.730469 Z M 1377.394531 966.164062 L 1425.191406 966.164062 L 1425.191406 1155.289062 L 1377.394531 1155.289062 Z M 1377.394531 966.164062 "/>
<path style=" stroke:none;fill-rule:nonzero;fill:rgb(97.254944%,65.490723%,60.00061%);fill-opacity:1;" d="M 1601.976562 1111.863281 L 1616.367188 1072.804688 L 1687.546875 1072.804688 L 1701.9375 1111.863281 Z M 1552.898438 1155.289062 L 1613.027344 967.707031 L 1689.601562 967.707031 L 1751.789062 1155.289062 L 1702.453125 1155.289062 L 1654.140625 1001.113281 L 1667.761719 1006.25 L 1633.84375 1006.25 L 1647.71875 1001.113281 L 1600.695312 1155.289062 Z M 1552.898438 1155.289062 "/>
<path style=" stroke:none;fill-rule:nonzero;fill:rgb(97.254944%,65.490723%,60.00061%);fill-opacity:1;" d="M 1153.421875 462.035156 C 1139.847656 467.011719 1122.449219 473.679688 1119.113281 464.460938 C 1117.902344 461.121094 1119.765625 456.210938 1123.679688 454.292969 C 1141.234375 445.703125 1158.53125 438.050781 1175.347656 427.355469 C 1211.296875 404.488281 1252.191406 359.726562 1251.164062 316.292969 C 1250.8125 301.433594 1244.164062 287.789062 1232.070312 279.734375 C 1220.875 272.273438 1207.429688 271.914062 1194.402344 275.644531 C 1189.425781 261.332031 1179.640625 250.667969 1167.574219 240.796875 C 1180 231.128906 1192.210938 224.585938 1206.480469 220.097656 C 1239.554688 212.015625 1275.28125 219.113281 1301.800781 241.039062 C 1347.390625 278.734375 1355.933594 343.488281 1338.957031 398.449219 C 1324.015625 446.820312 1294.371094 487.785156 1257.75 522.363281 C 1226.550781 551.816406 1192.75 577.324219 1154.933594 597.507812 C 1145.691406 602.441406 1136.949219 606.152344 1127.152344 609.335938 C 1113.757812 613.683594 1100.214844 612.574219 1087.4375 606.589844 C 1069.378906 598.136719 1053.238281 587.859375 1036.757812 576.488281 C 961.957031 524.863281 885.078125 436.246094 881.539062 342.058594 C 878.675781 265.890625 927.878906 199.804688 1005 189.5625 C 1045.554688 185.867188 1085.757812 200.078125 1114.859375 230.707031 C 1097.058594 234.773438 1082.496094 243.371094 1071.585938 257.519531 C 1051.625 283.398438 1049.558594 318.503906 1064.914062 347.363281 C 1076.15625 369.21875 1095.402344 383.691406 1118.90625 390.746094 L 1136.417969 396 C 1141.207031 397.4375 1143.886719 402.746094 1144.28125 406.789062 C 1145.414062 418.347656 1131.398438 423.109375 1120.082031 429.183594 C 1092.667969 443.894531 1067.960938 462.34375 1060.558594 493.75 C 1053.105469 525.347656 1072.398438 555.480469 1104.136719 561.96875 C 1117.46875 564.695312 1130.738281 563.558594 1144.0625 559.6875 C 1165.871094 553.355469 1185.832031 543.195312 1204.046875 529.871094 C 1206.4375 528.125 1207.0625 524.828125 1206.171875 522.636719 C 1205.257812 520.390625 1202.347656 517.664062 1199.449219 518.855469 C 1178.449219 527.472656 1153.839844 537.816406 1131.507812 538.730469 C 1127.226562 538.90625 1123.816406 535.414062 1123.167969 532 C 1122.316406 527.503906 1125.8125 524.3125 1130.378906 523.289062 C 1153.402344 518.132812 1174.984375 509.304688 1194.867188 496.929688 C 1198.203125 494.855469 1199.421875 491.101562 1197.816406 488.546875 C 1195.832031 485.386719 1192.765625 484.230469 1189.171875 485.871094 C 1165.59375 496.636719 1133.375 511.230469 1108.6875 511.179688 C 1104.300781 511.171875 1101.023438 507.621094 1100.648438 503.992188 C 1100.277344 500.371094 1103.296875 497.296875 1107.480469 496.191406 C 1134.851562 488.96875 1160.699219 478.679688 1185.015625 464.207031 C 1187.902344 462.488281 1189.640625 459.777344 1189.074219 456.875 C 1188.640625 454.664062 1185.183594 450.390625 1182.308594 451.441406 Z M 1153.421875 462.035156 "/>
<path style=" stroke:none;fill-rule:nonzero;fill:rgb(97.254944%,65.490723%,60.00061%);fill-opacity:1;" d="M 1100.300781 231.332031 C 1040.339844 183.046875 949.792969 201.199219 908.773438 264.457031 C 907.035156 267.136719 900.550781 277.230469 900.339844 278.953125 C 900.042969 281.375 908.882812 298.066406 911.0625 301.707031 C 943.28125 355.5 1018.941406 384.660156 1079.601562 374.742188 L 1081.898438 375.210938 C 1108.277344 398.933594 1139.222656 393.234375 1140.808594 406.832031 C 1141.925781 416.390625 1127.75 421.164062 1116.273438 427.503906 C 1101.609375 435.609375 1087.550781 444.320312 1076.53125 456.945312 C 1066.742188 468.15625 1059.8125 480.730469 1056.789062 495.1875 C 1050.230469 526.523438 1068.835938 556.308594 1099.710938 564.492188 C 1115.332031 568.632812 1131.070312 567.148438 1146.746094 562.449219 C 1167.988281 556.085938 1187.453125 546.160156 1205.1875 533.117188 C 1209.066406 530.269531 1210.617188 525.519531 1209.257812 521.621094 C 1207.832031 517.53125 1203.835938 514.953125 1199.503906 515.390625 C 1198.691406 513.609375 1199.617188 512.261719 1202.289062 511.351562 L 1198.96875 504.222656 C 1192.742188 507 1189.914062 506.800781 1190.484375 503.625 C 1193.941406 501.703125 1197.84375 499.628906 1200.304688 495.984375 C 1202.328125 492.992188 1201.917969 489.367188 1200.070312 486.414062 C 1198.746094 484.292969 1196.417969 482.351562 1193.355469 481.800781 C 1190.097656 481.597656 1191.089844 478.558594 1193.828125 477.285156 C 1191.75 473.433594 1191.617188 469.925781 1193.421875 466.765625 C 1191.632812 467.222656 1190.339844 467.347656 1189.378906 465.4375 C 1191.855469 462.058594 1193.601562 458.027344 1191.613281 454.199219 C 1189.761719 450.636719 1185.414062 447.210938 1181.0625 448.683594 L 1163.945312 454.476562 C 1150.835938 458.914062 1124.890625 470.714844 1122.257812 462.582031 C 1121.679688 460.792969 1123.191406 458.421875 1125.515625 457.261719 C 1158.371094 440.855469 1183.332031 430.347656 1210.101562 403.96875 C 1237.429688 402.964844 1262.785156 397.65625 1287.464844 384.574219 C 1306.976562 374.230469 1327.875 357.503906 1340.695312 339.433594 C 1340.109375 335.78125 1340.871094 333.492188 1342.972656 332.570312 C 1346.949219 389.433594 1322.734375 441.941406 1286.878906 486.082031 C 1258.542969 520.960938 1214.945312 557.589844 1176.683594 581.027344 C 1161.007812 590.628906 1145.675781 599.207031 1128.480469 605.230469 C 1115.808594 609.664062 1103.082031 609.507812 1090.972656 604.09375 C 1075.863281 597.335938 1062.515625 589.210938 1048.617188 580.125 C 973.496094 531.015625 897.796875 447.84375 886.269531 356.3125 C 876.703125 280.324219 922.515625 206.359375 999.910156 194.101562 C 1039.574219 187.820312 1078.894531 201.644531 1107.5 228.710938 Z M 1100.300781 231.332031 "/>
<path style=" stroke:none;fill-rule:nonzero;fill:rgb(97.254944%,65.490723%,60.00061%);fill-opacity:1;" d="M 1100.300781 231.332031 C 1070.363281 242.226562 1049.46875 277.785156 1051.085938 311.058594 C 1052.300781 336.046875 1063.699219 358.847656 1081.898438 375.210938 C 1081.421875 375.929688 1080.484375 376.957031 1079.265625 377.097656 C 1063.015625 378.964844 1047.367188 379.765625 1030.828125 377.226562 C 975.398438 368.710938 916.164062 334.285156 898.382812 278.816406 C 905.464844 264.515625 913.914062 251.558594 925.574219 240.925781 L 936.429688 231.03125 C 972.03125 204.816406 1009.824219 195.96875 1053.398438 205.703125 C 1071.164062 209.671875 1086.929688 218.355469 1101.128906 229.390625 C 1101.015625 230.175781 1100.539062 230.703125 1100.300781 231.332031 "/>
<path style=" stroke:none;fill-rule:nonzero;fill:rgb(97.254944%,65.490723%,60.00061%);fill-opacity:1;" d="M 1342.972656 332.570312 L 1342.746094 340.117188 C 1319.1875 371.195312 1285.996094 392.664062 1247.875 401.558594 C 1235.828125 404.367188 1224.429688 405.183594 1212.082031 405.265625 C 1210.886719 405.273438 1210.261719 404.863281 1210.101562 403.96875 C 1234.085938 380.339844 1259.105469 344.34375 1254.042969 309.707031 C 1251.371094 291.417969 1239.714844 276.332031 1221.910156 271.273438 C 1213.480469 269.132812 1205.359375 269.617188 1196.242188 271.164062 C 1191.570312 258.617188 1183.164062 249.253906 1173.355469 241.066406 C 1193.726562 225.371094 1217.332031 218.355469 1242.203125 220.964844 C 1301.207031 225.414062 1339.050781 276.992188 1342.972656 332.570312 "/>
<path style=" stroke:none;fill-rule:nonzero;fill:rgb(97.254944%,65.490723%,60.00061%);fill-opacity:1;" d="M 1193.355469 481.804688 C 1190.3125 481.996094 1187.164062 483.117188 1184.503906 484.339844 C 1162.980469 494.230469 1129.71875 508.519531 1107.980469 507.433594 C 1105.875 507.328125 1104.332031 505.492188 1104.179688 504.144531 C 1103.976562 502.367188 1105.125 500.707031 1107.140625 500.066406 L 1117.347656 496.820312 C 1143.097656 489.820312 1166.980469 478.933594 1189.378906 465.4375 C 1191.015625 464.453125 1194.988281 465.808594 1196.339844 461.761719 C 1198.132812 463.71875 1197.839844 465.375 1197.980469 466.71875 C 1198.078125 467.660156 1194.90625 467.671875 1194.503906 468.683594 C 1193.042969 472.375 1195.746094 475.871094 1198.441406 478.789062 C 1196.285156 479.554688 1194.738281 478.835938 1193.800781 479.410156 C 1193.257812 479.738281 1193.417969 481.488281 1193.355469 481.804688 "/>
<path style=" stroke:none;fill-rule:nonzero;fill:rgb(97.254944%,65.490723%,60.00061%);fill-opacity:1;" d="M 1199.503906 515.390625 L 1184.300781 521.410156 C 1166.925781 528.292969 1149.351562 533.921875 1130.875 535.464844 C 1128.761719 535.640625 1126.691406 533.242188 1126.382812 531.941406 C 1126.074219 530.640625 1127.21875 527.714844 1129.34375 527.226562 C 1150.972656 522.257812 1171.335938 514.273438 1190.484375 503.625 C 1190.597656 504.417969 1191.347656 504.640625 1192.050781 504.375 L 1200.441406 501.203125 C 1200.722656 506.261719 1206.578125 511.136719 1203.246094 513.140625 Z M 1199.503906 515.390625 "/>
<path style=" stroke:none;fill-rule:nonzero;fill:rgb(97.254944%,65.490723%,60.00061%);fill-opacity:1;" d="M 1313.90625 225.285156 C 1299.144531 211.808594 1281.828125 205.761719 1263.507812 199.21875 C 1262.191406 197.75 1265.445312 196.679688 1267.3125 196.320312 C 1315.972656 186.953125 1362.058594 170.289062 1405.84375 147.34375 C 1416.710938 141.652344 1427.796875 143.820312 1434.273438 153.820312 C 1440.539062 163.503906 1436.84375 176.363281 1426.125 182.253906 C 1390.753906 201.695312 1353.433594 215.921875 1313.90625 225.285156 "/>
<path style=" stroke:none;fill-rule:nonzero;fill:rgb(97.254944%,65.490723%,60.00061%);fill-opacity:1;" d="M 1434.304688 160.792969 L 1430.191406 162.191406 C 1393.890625 184.324219 1351.800781 204.0625 1309.859375 212.84375 C 1307.246094 213.390625 1304.539062 213.007812 1301.929688 212.613281 C 1292.328125 206.195312 1281.535156 202.140625 1271.117188 198.792969 C 1306.621094 191.183594 1340.59375 181.382812 1372.984375 166.273438 L 1412.464844 147.855469 C 1422.160156 143.335938 1432.53125 151.308594 1434.304688 160.792969 "/>
<path style=" stroke:none;fill-rule:nonzero;fill:rgb(97.254944%,65.490723%,60.00061%);fill-opacity:1;" d="M 1434.304688 160.792969 C 1437.402344 177.386719 1418.75 183.351562 1402.179688 191.386719 C 1374.492188 204.804688 1346.003906 214.765625 1315.777344 221.863281 L 1301.929688 212.613281 C 1346.613281 202.285156 1389.273438 185.671875 1427.84375 161.183594 C 1430.351562 159.59375 1431.847656 158.910156 1434.304688 160.792969 "/>
<path style=" stroke:none;fill-rule:nonzero;fill:rgb(97.254944%,65.490723%,60.00061%);fill-opacity:1;" d="M 1177.957031 310.367188 C 1177.957031 335.804688 1157.335938 356.425781 1131.898438 356.425781 C 1106.460938 356.425781 1085.84375 335.804688 1085.84375 310.367188 C 1085.84375 284.933594 1106.460938 264.3125 1131.898438 264.3125 C 1157.335938 264.3125 1177.957031 284.933594 1177.957031 310.367188 "/>
<path style=" stroke:none;fill-rule:nonzero;fill:rgb(97.254944%,65.490723%,60.00061%);fill-opacity:1;" d="M 1172.882812 297.109375 C 1173.355469 302.648438 1168.613281 306.945312 1164.664062 310.503906 C 1147.199219 326.234375 1115.105469 327.285156 1097.421875 311.554688 C 1093.554688 308.113281 1089.902344 304.488281 1090.316406 298.992188 C 1095.382812 280.644531 1111.875 267.789062 1130.902344 267.355469 C 1149.929688 266.921875 1166.988281 279.015625 1172.882812 297.109375 "/>
<path style=" stroke:none;fill-rule:nonzero;fill:rgb(97.254944%,65.490723%,60.00061%);fill-opacity:1;" d="M 1090.320312 298.992188 C 1098.179688 314.417969 1113.613281 320.453125 1131.394531 320.707031 C 1148.679688 320.949219 1164.027344 312.316406 1172.882812 297.109375 C 1178.597656 314.652344 1172.519531 333.882812 1157.761719 344.953125 C 1143.007812 356.023438 1122.847656 356.484375 1107.601562 346.097656 C 1092.359375 335.707031 1085.410156 316.773438 1090.320312 298.992188 "/>
<path style=" stroke:none;fill-rule:nonzero;fill:rgb(97.254944%,65.490723%,60.00061%);fill-opacity:1;" d="M 1355.183594 281.8125 C 1351.363281 268.332031 1344.90625 258.4375 1336.34375 247.417969 C 1363.433594 240.429688 1387.714844 230.640625 1411.859375 218.695312 C 1421.421875 213.964844 1431.917969 220.019531 1435.476562 228.117188 C 1440.003906 238.414062 1435.75 248.195312 1425.898438 253.476562 C 1403.515625 265.476562 1380.167969 273.933594 1355.183594 281.8125 "/>
<path style=" stroke:none;fill-rule:nonzero;fill:rgb(97.254944%,65.490723%,60.00061%);fill-opacity:1;" d="M 1357.078125 277.921875 C 1353.722656 267.289062 1348.597656 258.585938 1341.367188 249.003906 C 1366.796875 242.414062 1390.4375 232.335938 1414.273438 220.941406 C 1422.308594 217.097656 1431.199219 223.832031 1433.59375 230.835938 C 1436.378906 238.988281 1432.582031 246.988281 1424.503906 251.085938 C 1403.359375 262.460938 1381.378906 270.550781 1357.078125 277.921875 "/>
</g>
</svg>
